<svg width="20" height="20" viewBox="0 0 20 20" fill="none" xmlns="http://www.w3.org/2000/svg">
<path fill-rule="evenodd" clip-rule="evenodd" d="M10 0C15.523 0 20 4.47698 20 9.99996C20 15.5229 15.523 19.9999 10 19.9999C4.477 19.9999 0 15.5229 0 9.99996C0 4.47698 4.477 0 10 0ZM8.168 13.4449C8.09512 13.5542 8.04447 13.6768 8.01894 13.8056C7.99342 13.9344 7.99352 14.067 8.01924 14.1958C8.07119 14.4559 8.22434 14.6847 8.445 14.8319C8.66566 14.9791 8.93575 15.0326 9.19587 14.9807C9.45598 14.9288 9.6848 14.7756 9.832 14.5549C10.631 13.3559 12.223 12.586 13.757 12.9699C13.8847 13.0029 14.0177 13.0103 14.1483 12.9916C14.2789 12.973 14.4045 12.9287 14.5179 12.8613C14.6313 12.7938 14.7303 12.7047 14.8091 12.5988C14.8878 12.493 14.9449 12.3727 14.9769 12.2447C15.009 12.1167 15.0154 11.9837 14.9958 11.8532C14.9763 11.7228 14.931 11.5975 14.8628 11.4846C14.7946 11.3716 14.7047 11.2733 14.5983 11.1953C14.492 11.1173 14.3712 11.0611 14.243 11.03C11.777 10.414 9.369 11.644 8.168 13.4449ZM7.5 5.99998C7.10217 5.99998 6.72064 6.15801 6.43934 6.43931C6.15803 6.72062 6 7.10215 6 7.49997C6 7.89779 6.15803 8.27932 6.43934 8.56063C6.72064 8.84193 7.10217 8.99996 7.5 8.99996C7.89782 8.99996 8.27935 8.84193 8.56066 8.56063C8.84196 8.27932 9 7.89779 9 7.49997C9 7.10215 8.84196 6.72062 8.56066 6.43931C8.27935 6.15801 7.89782 5.99998 7.5 5.99998ZM13.5 4.99998C13.1022 4.99998 12.7206 5.15801 12.4393 5.43932C12.158 5.72062 12 6.10215 12 6.49997C12 6.8978 12.158 7.27933 12.4393 7.56063C12.7206 7.84193 13.1022 7.99997 13.5 7.99997C13.8978 7.99997 14.2794 7.84193 14.5607 7.56063C14.842 7.27933 15 6.8978 15 6.49997C15 6.10215 14.842 5.72062 14.5607 5.43932C14.2794 5.15801 13.8978 4.99998 13.5 4.99998Z" fill="#F7F9FC"/>
</svg>
