<svg width="21" height="21" viewBox="0 0 21 21" fill="none" xmlns="http://www.w3.org/2000/svg">
<mask id="mask0_30_550" style="mask-type:luminance" maskUnits="userSpaceOnUse" x="0" y="0" width="21" height="21">
<path d="M20.5 18.8333V2.16667C20.5 1.72464 20.3244 1.30072 20.0118 0.988155C19.6993 0.675595 19.2754 0.5 18.8333 0.5H2.16667C1.72464 0.5 1.30072 0.675595 0.988155 0.988155C0.675595 1.30072 0.5 1.72464 0.5 2.16667V18.8333C0.5 19.2754 0.675595 19.6993 0.988155 20.0118C1.30072 20.3244 1.72464 20.5 2.16667 20.5H18.8333C19.2754 20.5 19.6993 20.3244 20.0118 20.0118C20.3244 19.6993 20.5 19.2754 20.5 18.8333Z" fill="white" stroke="white" stroke-linejoin="round"/>
<path d="M10.5002 7.34326L8.89126 10.6266L5.23682 11.1566L7.88404 13.7444L7.25126 17.3433L10.5002 15.6116L13.7496 17.3433L13.1218 13.7444L15.764 11.1566L12.1302 10.6266L10.5002 7.34326Z" fill="black" stroke="black" stroke-linejoin="round"/>
<path d="M7.34326 4.18359H13.6588" stroke="black" stroke-linecap="round" stroke-linejoin="round"/>
</mask>
<g mask="url(#mask0_30_550)">
<path d="M-5.5 -0.5H21.1667V26.1667H-5.5V-0.5Z" fill="#F7F9FC"/>
</g>
</svg>
