<svg width="20" height="20" viewBox="0 0 20 20" fill="none" xmlns="http://www.w3.org/2000/svg">
<path d="M10 0C4.47692 0 0 4.47692 0 10C0 15.5231 4.47692 20 10 20C15.5231 20 20 15.5231 20 10C20 4.47692 15.5231 0 10 0ZM11.3641 6.29026C11.463 6.26919 11.565 6.26782 11.6644 6.28621C11.7638 6.30461 11.8586 6.34242 11.9434 6.39747C12.0282 6.45253 12.1013 6.52376 12.1585 6.60708C12.2157 6.6904 12.256 6.78419 12.2769 6.88308L12.3826 7.38462C12.4054 7.48408 12.4082 7.58709 12.3908 7.68764C12.3734 7.78819 12.3362 7.88428 12.2813 7.9703C12.2264 8.05633 12.1549 8.13058 12.0711 8.18872C11.9872 8.24686 11.8926 8.28773 11.7928 8.30896C11.693 8.33019 11.59 8.33135 11.4897 8.31236C11.3894 8.29338 11.294 8.25464 11.2088 8.1984C11.1237 8.14215 11.0506 8.06953 10.9938 7.98475C10.937 7.89998 10.8976 7.80475 10.8779 7.70462L10.7713 7.20205C10.729 7.00253 10.7678 6.7944 10.8789 6.62342C10.9901 6.45244 11.1646 6.33261 11.3641 6.29026ZM6.34769 7.35692C6.44656 7.33586 6.54861 7.33448 6.648 7.35288C6.7474 7.37128 6.8422 7.40908 6.92697 7.46414C7.01175 7.5192 7.08484 7.59042 7.14207 7.67375C7.1993 7.75707 7.23955 7.85086 7.26051 7.94974L7.36615 8.45128C7.38971 8.55104 7.3931 8.65451 7.3761 8.7556C7.35911 8.85668 7.32208 8.95335 7.2672 9.03993C7.21232 9.12651 7.14069 9.20124 7.05651 9.25974C6.97234 9.31824 6.87732 9.35932 6.77704 9.38058C6.67677 9.40184 6.57325 9.40284 6.47258 9.38353C6.37191 9.36422 6.27612 9.32498 6.19083 9.26812C6.10554 9.21126 6.03247 9.13793 5.97592 9.05243C5.91938 8.96693 5.88049 8.871 5.86154 8.77026L5.75487 8.26872C5.73381 8.16985 5.73243 8.0678 5.75083 7.96841C5.76923 7.86901 5.80703 7.77422 5.86209 7.68944C5.91715 7.60466 5.98837 7.53157 6.0717 7.47434C6.15502 7.41711 6.24881 7.37686 6.34769 7.3559M14.8882 11.0021C15.03 11.1486 15.1078 11.3454 15.1045 11.5492C15.1012 11.7531 15.0172 11.9473 14.8708 12.0892C14.6949 12.2601 14.5115 12.423 14.321 12.5774L14.5446 13.0338C14.804 13.5819 14.8372 14.2099 14.6372 14.7823C14.4372 15.3546 14.02 15.8253 13.4757 16.0925C12.9315 16.3597 12.304 16.402 11.7288 16.2102C11.1536 16.0184 10.6771 15.608 10.4021 15.0677L10.1221 14.4964C8.83131 14.7478 7.50148 14.7174 6.22359 14.4072C6.0283 14.3553 5.86127 14.2286 5.7586 14.0546C5.65593 13.8805 5.62587 13.6731 5.67491 13.4771C5.72395 13.281 5.84816 13.1122 6.02068 13.007C6.19321 12.9018 6.4002 12.8687 6.59692 12.9149C7.7559 13.2051 9.08821 13.2092 10.439 12.8472C11.7897 12.4851 12.9415 11.8164 13.801 10.9846C13.9476 10.8429 14.1444 10.7651 14.3482 10.7683C14.5521 10.7716 14.7463 10.8557 14.8882 11.0021Z" fill="#F7F9FC"/>
</svg>
