<svg width="37" height="25" viewBox="0 0 37 25" fill="none" xmlns="http://www.w3.org/2000/svg">
<path d="M2.05566 21.333H34.9443C35.3982 21.333 35.7568 21.4835 36.0537 21.7842C36.3509 22.0853 36.501 22.4512 36.5 22.915C36.4989 23.3803 36.3479 23.7484 36.0508 24.0518C35.756 24.3526 35.3998 24.5021 34.9473 24.5H2.05566C1.60162 24.5 1.24358 24.3502 0.948242 24.0498C0.65155 23.7481 0.501083 23.3804 0.5 22.915C0.499017 22.4517 0.649009 22.0864 0.947266 21.7852C1.24631 21.4831 1.60501 21.333 2.05566 21.333ZM2.05566 10.917H34.9443C35.3984 10.917 35.7568 11.0672 36.0537 11.3682C36.3509 11.6694 36.5011 12.035 36.5 12.499C36.4989 12.9643 36.348 13.3324 36.0508 13.6357C35.756 13.9365 35.3997 14.0851 34.9473 14.083H2.05566C1.60159 14.083 1.24359 13.9332 0.948242 13.6328C0.651672 13.3311 0.501126 12.9642 0.5 12.499C0.498921 12.0355 0.648879 11.6695 0.947266 11.3682C1.24628 11.0662 1.60507 10.917 2.05566 10.917ZM2.05566 0.5H34.9443C35.3983 0.5 35.7568 0.650349 36.0537 0.951172C36.3509 1.2524 36.5011 1.61802 36.5 2.08203C36.4989 2.54741 36.348 2.91537 36.0508 3.21875C35.756 3.51959 35.3998 3.66905 34.9473 3.66699H2.05566C1.60159 3.66699 1.24359 3.5162 0.948242 3.21582C0.651741 2.91413 0.501083 2.54725 0.5 2.08203C0.498951 1.61867 0.649044 1.25345 0.947266 0.952148C1.24631 0.650116 1.60501 0.5 2.05566 0.5Z" stroke="#0E0707"/>
</svg>
