<svg width="20" height="20" viewBox="0 0 20 20" fill="none" xmlns="http://www.w3.org/2000/svg">
<path d="M10 0C4.47733 0 0 4.47733 0 10C0 15.5227 4.47733 20 10 20C15.5227 20 20 15.5227 20 10C20 4.47733 15.5227 0 10 0ZM13.4263 14.836H11.4907L10.3227 9.17967L9.98167 7.30967L9.64067 9.17967L8.47267 14.836H6.59567L3.85267 5.164H5.99867L7.276 10.7023L7.554 12.244L7.83267 10.7343L8.925 5.164H11.0577L12.2067 10.7017L12.501 12.244L12.7997 10.7617L14.0887 5.164H16.1467L13.4263 14.836Z" fill="#F7F9FC"/>
</svg>
